<svg width="20" height="21" viewBox="0 0 20 21" fill="none" xmlns="http://www.w3.org/2000/svg">
<g id="ion:logo-twitter">
<path id="Vector" d="M19.375 4.77735C18.6717 5.08296 17.9275 5.2843 17.166 5.37501C17.9663 4.9064 18.5681 4.16195 18.8586 3.28126C18.102 3.72368 17.2756 4.0341 16.4148 4.19923C16.0524 3.81935 15.6165 3.51716 15.1336 3.311C14.6507 3.10484 14.1309 2.99904 13.6059 3.00001C11.4801 3.00001 9.75977 4.69532 9.75977 6.78516C9.75826 7.07585 9.79157 7.36568 9.85898 7.64844C8.33464 7.57698 6.842 7.18813 5.47656 6.50675C4.11111 5.82537 2.90292 4.86648 1.9293 3.69141C1.58772 4.26724 1.40708 4.92424 1.40625 5.59376C1.40625 6.90626 2.09102 8.06641 3.125 8.7461C2.51239 8.73156 1.91234 8.56942 1.37578 8.27344V8.32032C1.37578 10.1563 2.70391 11.6836 4.46172 12.0313C4.13117 12.1194 3.79053 12.164 3.44844 12.1641C3.20569 12.1645 2.9635 12.1409 2.72539 12.0938C3.21406 13.5977 4.63633 14.6914 6.32109 14.7227C4.9521 15.7777 3.27134 16.348 1.54297 16.3438C1.23618 16.3433 0.929674 16.325 0.625 16.2891C2.38327 17.4118 4.42713 18.0057 6.51328 18C13.5977 18 17.468 12.2305 17.468 7.22657C17.468 7.06251 17.4637 6.89844 17.4559 6.73829C18.2071 6.20394 18.857 5.53989 19.375 4.77735Z" fill="white"/>
</g>
</svg>
